<?xml version="1.0" encoding="utf-8"?>
<!-- Generator: Adobe Illustrator 19.2.1, SVG Export Plug-In . SVG Version: 6.00 Build 0)  -->
<svg version="1.1" id="Layer_1" xmlns="http://www.w3.org/2000/svg" xmlns:xlink="http://www.w3.org/1999/xlink" x="0px" y="0px"
	 viewBox="0 0 256 256" style="enable-background:new 0 0 256 256;" xml:space="preserve">
<g>
	<g>
		<ellipse style="fill:#FF3333;" cx="128" cy="128" rx="128" ry="128"/>
	</g>
	<path style="fill:#FFFFFF;" d="M170.8,78.1c6,0.7,12.1,0.6,17.8,2.2c16.2,4.5,23.2,20.1,18.3,39.6c-3.8,15.2-11.8,28.2-22,39.8
		c-20.3,23.1-44.4,40.4-75.1,46.8c-6.2,1.3-13.1,1.4-19.3,0.2c-16.3-3-24.9-18.5-20.6-36.3c1.1-4.7,2.9-9.4,5.1-13.7s5.3-8.2,9-13.6
		c-4.4-4-9.3-8.2-13.8-12.8c-1.3-1.3-2.3-4.3-1.7-5.9c7.5-19.1,11.5-39,11.9-59.6c0-1.2,0.4-2.3,0.7-3.9c26.9,0,53.7,0,81.6,0
		c-0.5,8.7-0.6,17.5-1.5,26.1c-2.8,25.9-9.3,50.8-19.6,74.8c-1.9,4.4-4.2,5.8-9.1,6.2c-16.6,1.3-31.9,0.2-40.5-16.9
		c-10.2,7.6-15.8,25.7-11.8,36.3c2.7,7.3,10.3,12.2,20.8,11c9.6-1.1,19.5-3,28.4-6.8c30.2-12.9,54.2-33,67.8-63.7
		c2.5-5.7,4.1-11.9,5-18c2.6-17.1-7.2-28.2-25.7-29.9c-1.9-0.2-3.9-0.3-5.8-0.4C170.7,79,170.8,78.5,170.8,78.1z M108,158.5
		c7.6,0,14.3-0.2,20.9,0.1c3.6,0.2,5.2-1.2,6.5-4.4c8-19.5,13.4-39.7,16.3-60.5c1-7.6,1.3-15.4,1.9-23.1c-21.9,0-42.6,0-62,0
		c-4.2,19.2-8.2,37.7-12.3,56.6c8.8,0,18.4,0,28.7,0C108,137.8,108,147.7,108,158.5z"/>
</g>
</svg>
